# xmcd
#
# Track frame offsets:
#	150
#	4628
#	15213
#	23370
#	40948
#	57048
#	67801
#	82708
#	100375
#	122331
#	132965
#	147387
#	170918
#	194995
#	204918
#	230233
#	253328
#
# Disc length: 3601 seconds
#
# Revision: 1
# Processed by: cddbd v1.5.1PL2 Copyright (c) Steve Scherf et al.
# Submitted via: audiograbber 1.83.01
#
DISCID=de0e0f11
DTITLE=The Hot Rod Gang - Jubilee-Party(live)
DYEAR=1994
DGENRE=Rockabilly
TTITLE0=The Virginian Intro
TTITLE1=Long Blond Hair
TTITLE2=16 Chicks
TTITLE3=Keen on you
TTITLE4=Lonesome Cowboy
TTITLE5=Please don´t leave me
TTITLE6=Riding along
TTITLE7=You´re gonna miss me
TTITLE8=Once upon a time in the west
TTITLE9=Hot dog
TTITLE10=She´s fine
TTITLE11=All mixed up
TTITLE12=Mad Man Blues
TTITLE13=Tear it up
TTITLE14=Summertime Blues
TTITLE15=Orange Blossom Special
TTITLE16=Ich tu was ich will
EXTD=
EXTT0=
EXTT1=
EXTT2=
EXTT3=
EXTT4=
EXTT5=
EXTT6=
EXTT7=
EXTT8=
EXTT9=
EXTT10=
EXTT11=
EXTT12=
EXTT13=
EXTT14=
EXTT15=
EXTT16=
PLAYORDER=
